IKResults
version=1
nRows=14
nColumns=40
inDegrees=yes

Units are S.I. units (second, meters, Newtons, ...)
Angles are in degrees.

endheader
time	pelvis_tilt	pelvis_list	pelvis_rotation	pelvis_tx	pelvis_ty	pelvis_tz	hip_flexion_r	hip_adduction_r	hip_rotation_r	knee_angle_r	knee_angle_r_beta	ankle_angle_r	subtalar_angle_r	mtp_angle_r	hip_flexion_l	hip_adduction_l	hip_rotation_l	knee_angle_l	knee_angle_l_beta	ankle_angle_l	subtalar_angle_l	mtp_angle_l	lumbar_extension	lumbar_bending	lumbar_rotation	arm_flex_r	arm_add_r	arm_rot_r	elbow_flex_r	pro_sup_r	wrist_flex_r	wrist_dev_r	arm_flex_l	arm_add_l	arm_rot_l	elbow_flex_l	pro_sup_l	wrist_flex_l	wrist_dev_l
      1.54000000	     15.66638392	     -1.96780486	     -2.64831383	      0.21524624	      0.95414966	      1.40620593	      2.05308384	     -1.49306301	     -7.74537980	    -32.17618726	     -0.56158041	      8.81535731	     -3.62856106	     -2.99439216	    -20.10435678	     -1.01003783	     22.18399286	     -7.86603839	     -0.13728827	      6.75893167	    -11.15942176	     -6.53330449	    -24.19341959	     -0.51236575	     -0.94298367	     -1.69989285	     -9.57853354	      1.98238887	     23.21594119	     89.95437384	      0.00000000	      0.00000000	     10.00333718	     10.82246875	      1.35136160	     33.17425653	     89.95437384	      0.00000000	      0.00000000
      1.55000000	     15.35086165	     -1.89756434	     -2.87462175	      0.22065592	      0.95331594	      1.40609503	      3.04465732	     -1.65464161	     -8.44386302	    -31.16897359	     -0.54400121	      8.76534716	     -3.47893862	     -2.98829071	    -20.12612316	     -1.20136835	     22.31629236	     -7.86760968	     -0.13731569	      7.00825277	    -11.02747689	     -6.47665880	    -23.87639722	     -0.56753307	     -0.78696986	     -1.80551766	     -9.59781565	      2.00317637	     23.07579775	     89.95437384	      0.00000000	      0.00000000	     10.22465079	     10.68346625	      1.28668821	     33.64770015	     89.95437384	      0.00000000	      0.00000000
      1.56000000	     15.47084567	     -2.23021715	     -2.39280540	      0.22646802	      0.95328072	      1.40572775	      3.02072918	     -1.42152543	    -10.05816479	    -29.34579909	     -0.51218082	      8.01851516	     -1.91085557	     -3.51254708	    -20.54798428	     -0.69364046	     21.86711818	     -8.07620215	     -0.14095632	      7.55058040	    -10.92076210	     -6.43716714	    -24.03117405	     -0.03395083	     -1.21157910	     -1.79451496	     -9.45539775	      1.73089009	     22.81257326	     89.95437384	      0.00000000	      0.00000000	     10.27495319	     10.75096443	      1.02569347	     34.42707482	     89.95437384	      0.00000000	      0.00000000
      1.57000000	     15.21854191	     -2.22392440	     -2.36223719	      0.23188024	      0.95254595	      1.40550519	      3.75162240	     -1.52116405	    -11.06918128	    -28.08791858	     -0.49022666	      7.18868626	     -1.18458896	     -3.67094953	    -20.61025529	     -0.72953181	     21.62397440	     -8.11787842	     -0.14168371	      7.79717190	    -10.79224545	     -6.38535553	    -23.81024539	      0.05275137	     -1.27421260	     -1.88278275	     -9.44378275	      1.70836394	     22.69943986	     89.95437384	      0.00000000	      0.00000000	     10.42130198	     10.70139923	      0.85104345	     35.05264592	     89.95437384	      0.00000000	      0.00000000
      1.58000000	     14.96225950	     -2.14586775	     -2.49174931	      0.23753670	      0.95168297	      1.40548975	      4.55799725	     -1.68377559	    -11.96789734	    -27.07039935	     -0.47246760	      6.91586860	     -0.98337200	     -3.66635978	    -20.66792619	     -0.88415667	     21.71007581	     -8.19709243	     -0.14306625	      8.05288460	    -10.63082260	     -6.34007063	    -23.55461297	      0.02496767	     -1.17869064	     -2.04177662	     -9.44985781	      1.69270837	     22.64109854	     89.95437384	      0.00000000	      0.00000000	     10.56080520	     10.57681076	      0.78762452	     35.59756927	     89.95437384	      0.00000000	      0.00000000
      1.59000000	     15.38093147	     -2.59323758	     -1.75903133	      0.24375228	      0.95198185	      1.40504279	      3.98937056	     -1.36387579	    -14.28014092	    -25.11742140	     -0.43838170	      5.87946741	      0.69141301	     -4.26626394	    -21.47174401	     -0.17349989	     21.08241053	     -8.34705898	     -0.14568366	      8.52715067	    -10.44146173	     -6.38178665	    -23.99940627	      0.74297525	     -1.78762129	     -2.08216682	     -9.32495368	      1.48352721	     22.47745379	     89.95437384	      0.00000000	      0.00000000	     10.57151248	     10.69480911	      0.46021907	     36.36521411	     89.95437384	      0.00000000	      0.00000000
      1.60000000	     15.22100723	     -2.63701533	     -1.66219720	      0.24951656	      0.95121480	      1.40490126	      4.46129828	     -1.39212222	    -15.49338211	    -23.81558110	     -0.41566030	      5.12227830	      1.63980874	     -4.58463094	    -21.65758379	     -0.13288400	     20.79787792	     -8.39293734	     -0.14648439	      8.83413118	    -10.27743074	     -6.36632841	    -23.87499666	      0.90410487	     -1.80130582	     -2.22631628	     -9.33990774	      1.48632316	     22.37114273	     89.95437384	      0.00000000	      0.00000000	     10.64781154	     10.59708679	      0.31601180	     37.14646695	     89.95437384	      0.00000000	      0.00000000
      1.61000000	     14.99862865	     -2.57965715	     -1.78936071	      0.25549671	      0.95023966	      1.40514133	      5.15312920	     -1.48492722	    -16.37698138	    -22.92584232	     -0.40013143	      4.98746818	      1.80614842	     -4.59528270	    -21.79663196	     -0.25910675	     20.90366712	     -8.44012870	     -0.14730804	      9.05039442	    -10.13569289	     -6.33655633	    -23.61134158	      0.87673714	     -1.66048302	     -2.41885409	     -9.33917580	      1.51950881	     22.26852302	     89.95437384	      0.00000000	      0.00000000	     10.78333100	     10.45349350	      0.27771755	     37.64423957	     89.95437384	      0.00000000	      0.00000000
      1.62000000	     15.46633445	     -3.07185443	     -0.97685707	      0.26202625	      0.95044796	      1.40470907	      4.42539873	     -1.08924486	    -18.91329276	    -21.05760598	     -0.36752456	      3.94294891	      4.14926569	     -5.47755960	    -22.63495043	      0.53808139	     20.17691321	     -8.62221985	     -0.15048613	      9.47422645	     -9.89343703	     -6.43791710	    -24.09821835	      1.69179382	     -2.25635027	     -2.54179147	     -9.31859022	      1.55587036	     22.22799764	     89.95437384	      0.00000000	      0.00000000	     10.71503871	     10.47440185	      0.19963771	     38.50705858	     89.95437384	      0.00000000	      0.00000000
      1.63000000	     15.39990147	     -3.23979941	     -0.88746919	      0.26809085	      0.94972758	      1.40488543	      4.70887464	     -0.93756875	    -20.14744450	    -19.90158830	     -0.34734824	      3.19551800	      5.19593151	     -5.86037000	    -22.87864108	      0.74547010	     20.03882694	     -8.82434861	     -0.15401394	      9.93589394	     -9.65652431	     -6.46694002	    -24.03946469	      1.96939471	     -2.25325325	     -2.64488602	     -9.33327012	      1.61433823	     22.06233946	     89.95437384	      0.00000000	      0.00000000	     10.79290209	     10.37586884	      0.06683743	     39.08963706	     89.95437384	      0.00000000	      0.00000000
      1.64000000	     15.18580733	     -3.16472391	     -0.97908796	      0.27437188	      0.94864079	      1.40513504	      5.31440496	     -1.00737668	    -20.90946611	    -19.18963576	     -0.33492233	      3.15082674	      5.30204789	     -5.88041312	    -23.01149610	      0.62009540	     20.08490130	     -8.96127763	     -0.15640380	     10.20381158	     -9.53013055	     -6.43681583	    -23.77193213	      1.95398318	     -2.14278041	     -2.82056117	     -9.35333415	      1.63885194	     21.90447645	     89.95437384	      0.00000000	      0.00000000	     10.92127379	     10.19829358	      0.03190133	     39.47568412	     89.95437384	      0.00000000	      0.00000000
      1.65000000	     15.57568333	     -3.72693661	     -0.24943274	      0.28105740	      0.94863106	      1.40521078	      4.60353430	     -0.32974598	    -22.87357444	    -17.43190831	     -0.30424419	      2.51213397	      7.14304923	     -6.52385599	    -23.67746609	      1.55725370	     19.54149357	     -9.37096094	     -0.16355412	     10.76683455	     -9.29270253	     -6.51456001	    -24.14675312	      2.79829395	     -2.58198770	     -2.94217378	     -9.31594227	      1.59824693	     21.84684098	     89.95437384	      0.00000000	      0.00000000	     10.89076832	     10.17686851	     -0.03554955	     40.17754366	     89.95437384	      0.00000000	      0.00000000
      1.66000000	     15.39481822	     -3.65518192	     -0.41439875	      0.28735869	      0.94758974	      1.40569199	      5.12780273	     -0.36319802	    -23.47824401	    -16.85456486	     -0.29416765	      2.78842676	      7.15917497	     -6.57911879	    -23.86060691	      1.41920312	     19.56778084	     -9.47468433	     -0.16536444	     10.92387617	     -9.19686694	     -6.48815626	    -23.93395251	      2.75621527	     -2.37797727	     -3.12866904	     -9.33573694	      1.64710964	     21.73908898	     89.95437384	      0.00000000	      0.00000000	     11.02392786	      9.97158799	     -0.05221963	     40.54249681	     89.95437384	      0.00000000	      0.00000000
      1.67000000	     15.59986811	     -4.09025954	      0.02809221	      0.29430478	      0.94716964	      1.40609327	      4.66041015	      0.29660891	    -24.54180848	    -15.42986767	     -0.26930199	      3.14744072	      8.58875398	     -7.21675527	    -24.41177681	      2.10057109	     19.16314736	     -9.74977921	     -0.17016575	     11.42279964	     -8.95830045	     -6.55998370	    -24.06438321	      3.38277472	     -2.58989063	     -3.30244779	     -9.33329318	      1.70918242	     21.64106810	     89.95437384	      0.00000000	      0.00000000	     10.99515562	      9.91292894	     -0.17365937	     41.12523545	     89.95437384	      0.00000000	      0.00000000
